<svg xmlns="http://www.w3.org/2000/svg" width="665" height="700" viewBox="0 0 665 700">
    <g fill="none" fill-rule="evenodd" stroke-width="2">
        <path stroke="#3EDD27" d="M455.366 209.558c25.068-11.122 54.512.224 65.635 25.293 11.123 25.07-.222 54.513-25.293 65.636-25.07 11.121-54.514-.224-65.636-25.294-11.122-25.069.224-54.512 25.294-65.635m-54.57 24.8l9.276 4.539a67.302 67.302 0 0 0-1.939 18.115l-10.01 2.481a8.063 8.063 0 0 0-5.884 9.765l2.998 12.093a8.06 8.06 0 0 0 9.763 5.883l10.027-2.486a67.259 67.259 0 0 0 10.153 15.127l-6.07 8.333a8.06 8.06 0 0 0 1.767 11.263l10.07 7.336a8.059 8.059 0 0 0 11.261-1.769l6.081-8.345a67.807 67.807 0 0 0 17.503 5.046l.708 10.298c.302 4.443 4.151 7.794 8.592 7.49l12.428-.852a8.153 8.153 0 0 0 2.72-.671 8.065 8.065 0 0 0 4.77-7.924l-.705-10.299a67.937 67.937 0 0 0 16.65-7.386l7.163 7.434a8.065 8.065 0 0 0 9.076 1.778 8.12 8.12 0 0 0 2.323-1.565l8.97-8.642a8.061 8.061 0 0 0 .215-11.398l-7.159-7.433a67.826 67.826 0 0 0 8.002-16.366l10.27 1.094a8.028 8.028 0 0 0 4.113-.643 8.061 8.061 0 0 0 4.753-6.52l1.317-12.387a8.062 8.062 0 0 0-7.162-8.87l-10.254-1.092a67.16 67.16 0 0 0-4.401-17.677l8.572-5.765a8.059 8.059 0 0 0 2.189-11.187l-6.952-10.338a8.066 8.066 0 0 0-11.189-2.19l-8.556 5.757a67.328 67.328 0 0 0-14.734-10.718l2.86-9.923a8.06 8.06 0 0 0-5.515-9.978l-11.97-3.45a8.03 8.03 0 0 0-5.496.376 8.036 8.036 0 0 0-4.481 5.139l-2.857 9.914a66.887 66.887 0 0 0-18.178 1.247l-4.183-9.43a8.06 8.06 0 0 0-10.638-4.1l-11.388 5.052a8.063 8.063 0 0 0-4.1 10.638l4.186 9.43a66.897 66.897 0 0 0-13.124 12.64l-9.268-4.534a8.05 8.05 0 0 0-6.817-.127 8.05 8.05 0 0 0-3.967 3.824l-5.476 11.191a8.06 8.06 0 0 0 3.698 10.783"/>
        <path stroke="#6DCFCD" d="M296.366 312.558c25.068-11.122 54.512.224 65.635 25.293 11.123 25.07-.222 54.513-25.293 65.636-25.07 11.121-54.514-.224-65.636-25.294-11.122-25.069.224-54.512 25.294-65.635m-54.57 24.8l9.276 4.539a67.302 67.302 0 0 0-1.939 18.115l-10.01 2.481a8.063 8.063 0 0 0-5.884 9.765l2.998 12.093a8.06 8.06 0 0 0 9.763 5.883l10.027-2.486a67.259 67.259 0 0 0 10.153 15.127l-6.07 8.333a8.06 8.06 0 0 0 1.767 11.263l10.07 7.336a8.059 8.059 0 0 0 11.261-1.769l6.081-8.345a67.807 67.807 0 0 0 17.503 5.046l.708 10.298c.302 4.443 4.151 7.794 8.592 7.49l12.428-.852a8.153 8.153 0 0 0 2.72-.671 8.065 8.065 0 0 0 4.77-7.924l-.705-10.299a67.937 67.937 0 0 0 16.65-7.386l7.163 7.434a8.065 8.065 0 0 0 9.076 1.778 8.12 8.12 0 0 0 2.323-1.565l8.97-8.642a8.061 8.061 0 0 0 .215-11.398l-7.159-7.433a67.826 67.826 0 0 0 8.002-16.366l10.27 1.094a8.028 8.028 0 0 0 4.113-.643 8.061 8.061 0 0 0 4.753-6.52l1.317-12.387a8.062 8.062 0 0 0-7.162-8.87l-10.254-1.092a67.16 67.16 0 0 0-4.401-17.677l8.572-5.765a8.059 8.059 0 0 0 2.189-11.187l-6.952-10.338a8.066 8.066 0 0 0-11.189-2.19l-8.556 5.757a67.328 67.328 0 0 0-14.734-10.718l2.86-9.923a8.06 8.06 0 0 0-5.515-9.978l-11.97-3.45a8.03 8.03 0 0 0-5.496.376 8.036 8.036 0 0 0-4.481 5.139l-2.857 9.914a66.887 66.887 0 0 0-18.178 1.247l-4.183-9.43a8.06 8.06 0 0 0-10.638-4.1l-11.388 5.052a8.063 8.063 0 0 0-4.1 10.638l4.186 9.43a66.897 66.897 0 0 0-13.124 12.64l-9.268-4.534a8.05 8.05 0 0 0-6.817-.127 8.05 8.05 0 0 0-3.967 3.824l-5.476 11.191a8.06 8.06 0 0 0 3.698 10.783"/>
        <g fill-rule="nonzero" stroke="#35B3BD">
            <path d="M319.308 349.807V332.7c0-1.822-1.479-3.3-3.308-3.3a3.303 3.303 0 0 0-3.308 3.3v17.107c-3.843 1.363-6.615 4.987-6.615 9.293 0 5.468 4.442 9.9 9.923 9.9 5.48 0 9.923-4.432 9.923-9.9 0-4.306-2.772-7.93-6.615-9.293z"/>
        </g>
        <path stroke="#F98028" stroke-linecap="round" stroke-linejoin="round" d="M507.718 397.684c-11.237 52.46-43.786 100.145-93.908 129.083-93.984 54.262-214.161 22.06-268.423-71.924-52.381-90.726-24.19-205.86 62.369-262.545l1.365-.792-14.147-24.838 98.53 6.91-43.468 88.461-15.27-26.45-1.454.973c-62.19 42.516-82.05 126.456-43.758 192.78 40.178 69.592 129.164 93.436 198.756 53.257 36.742-21.212 60.732-56.03 69.28-94.414"/>
    </g>
</svg>
